<svg width="108" height="100" viewBox="0 0 108 100" fill="none" xmlns="http://www.w3.org/2000/svg">
<path d="M0.463623 67.1336C0.737803 66.0238 0.956027 64.8986 1.29456 63.8041C3.83491 55.5709 12.0939 49.7717 21.4775 49.736C34.2045 49.6875 46.9315 49.7003 59.6585 49.7462C61.6225 49.7539 63.5865 50.0779 65.5505 50.2565C65.5617 50.3611 65.5701 50.4657 65.5813 50.5729C65.1281 50.9402 64.6664 51.3051 64.2188 51.6801C62.3611 53.2313 60.9118 55.0556 60.0026 57.1987C59.734 57.8314 59.3703 58.1121 58.6373 58.2753C51.4163 59.8878 46.9902 64.0159 45.4739 70.6672C45.2556 71.6265 45.2277 72.6317 45.2193 73.6165C45.1913 77.5073 45.2081 81.3956 45.2081 85.2863C45.2081 85.6333 45.2081 85.9829 45.2081 86.46C44.738 86.46 44.3324 86.46 43.9267 86.46C30.8836 86.46 17.8405 86.4319 4.80014 86.488C2.7354 86.4957 1.30295 85.8808 0.463623 84.1638C0.463623 78.487 0.463623 72.8103 0.463623 67.1336Z" fill="#E4E4E4"/>
<path d="M42.4289 0.362549C44.3508 0.803397 46.3426 1.08183 48.1861 1.71603C57.8485 5.03399 63.5105 13.6164 62.5622 23.3382C61.7061 32.1191 53.96 39.6986 44.1885 41.3099C29.888 43.6688 16.8071 32.7043 18.038 19.3835C18.9528 9.4863 26.8751 1.86556 37.6369 0.524967C37.8411 0.499186 38.0341 0.416688 38.2328 0.362549C39.6315 0.362549 41.0302 0.362549 42.4289 0.362549Z" fill="#E4E4E4"/>
<path d="M60.5999 99.0486C59.2191 98.4038 57.7018 97.9286 56.4908 97.0749C54.8093 95.8897 53.9713 94.0988 53.9518 92.1251C53.8933 86.1597 53.9295 80.1942 53.9295 74.2288C53.9295 74.1688 53.9657 74.1087 54.0242 73.9286C54.4 74.0957 54.7675 74.2445 55.1211 74.4168C62.9078 78.2258 70.7029 82.0191 78.4674 85.8673C80.0097 86.6322 81.3599 86.6009 82.8911 85.8438C90.6862 81.9826 98.5147 78.1762 106.335 74.3594C106.663 74.2001 107.028 74.1087 107.373 73.9834C107.373 80.2491 107.373 86.5147 107.373 92.7804C106.828 93.9186 106.421 95.143 105.703 96.1795C104.55 97.8399 102.682 98.5839 100.692 99.046C87.326 99.0486 73.9629 99.0486 60.5999 99.0486Z" fill="#E4E4E4"/>
<path d="M55.8619 68.0523C59.0257 65.0636 63.1643 66.1751 67.0719 65.8667C67.0719 64.9642 67.0663 64.074 67.0719 63.1839C67.1001 59.0117 70.4752 56.0155 75.1885 55.9956C78.7777 55.9807 82.3669 55.9832 85.9589 55.9956C90.737 56.013 94.0924 58.9992 94.1178 63.2411C94.1234 64.1039 94.1178 64.9642 94.1178 65.8468C97.29 66.18 100.513 65.352 103.426 66.7668C104.094 67.0901 104.694 67.5252 105.429 67.9703C105.063 68.1766 104.849 68.3184 104.612 68.4253C96.9181 71.9709 89.2185 75.5091 81.533 79.0721C80.8794 79.3755 80.3779 79.4004 79.7017 79.0871C72.05 75.534 64.3814 72.0107 56.7184 68.48C56.4423 68.3507 56.1747 68.2065 55.8619 68.0523ZM73.8334 65.8518C78.403 65.8518 82.8458 65.8518 87.3507 65.8518C87.3507 64.8573 87.3732 63.9298 87.3422 63.0049C87.3225 62.341 86.883 61.968 86.1336 61.9655C82.443 61.9556 78.7495 61.9531 75.0589 61.9655C74.2503 61.968 73.8418 62.3833 73.8334 63.0869C73.8277 63.9845 73.8334 64.8796 73.8334 65.8518Z" fill="#E4E4E4"/>
</svg>
