<svg width="93" height="94" viewBox="0 0 93 94" fill="none" xmlns="http://www.w3.org/2000/svg">
<path d="M72.657 40.169C59.9013 39.3346 49.7022 43.9 42.9733 54.7443C36.2631 65.557 36.8141 76.6813 43.1667 87.6841C42.8515 87.7078 42.568 87.7448 42.2872 87.7474C33.598 87.7501 24.9089 87.7686 16.217 87.7448C8.80474 87.7237 2.88391 83.0633 1.29708 75.9974C1.04541 74.8831 0.955338 73.7108 0.955338 72.5648C0.934145 53.4928 0.931496 34.4207 0.944742 15.3487C0.952689 6.92827 7.09604 0.50932 15.5283 0.22151C19.9497 0.0710036 24.3817 0.173981 28.8084 0.171341C38.2579 0.168701 47.7074 0.16606 57.1568 0.171341C63.4379 0.176622 68.119 2.9095 71.1019 8.44126C72.2172 10.5087 72.6993 12.769 72.7046 15.1111C72.7232 23.2278 72.7126 31.3446 72.7099 39.4614C72.7126 39.7175 72.6728 39.9736 72.657 40.169ZM36.8591 19.0717C31.1131 19.0717 25.3672 19.0374 19.6212 19.1087C18.7231 19.1193 17.7164 19.4361 16.9588 19.922C15.568 20.8118 15.1097 22.5756 15.6077 24.1335C16.1243 25.7495 17.5019 26.8188 19.2397 26.8321C23.632 26.8585 28.0242 26.8453 32.4165 26.8453C39.6487 26.8453 46.8808 26.8558 54.113 26.84C56.7409 26.8347 58.4735 24.8359 58.1026 22.3169C57.8191 20.4078 56.2137 19.0849 54.0997 19.0797C48.3511 19.0638 42.6051 19.0717 36.8591 19.0717ZM25.3513 40.0528C23.4015 40.0528 21.4544 40.037 19.5046 40.0581C17.1177 40.0819 15.417 41.7269 15.4276 43.966C15.4382 46.2051 17.1442 47.8158 19.5523 47.8237C23.4174 47.8343 27.2798 47.8343 31.1449 47.8237C33.5504 47.8158 35.2643 46.1998 35.2776 43.9686C35.2908 41.7374 33.5768 40.0819 31.1979 40.0581C29.2508 40.037 27.301 40.0528 25.3513 40.0528ZM23.2743 68.8365C24.5936 68.8365 25.9129 68.8576 27.2322 68.8312C29.468 68.7889 31.1264 67.1254 31.129 64.9576C31.1317 62.7819 29.4813 61.1026 27.2428 61.0762C24.6042 61.0445 21.9657 61.0445 19.3271 61.0762C17.086 61.1026 15.4302 62.7766 15.4276 64.9471C15.4249 67.1122 17.086 68.7889 19.3165 68.8312C20.6358 68.8576 21.9551 68.8365 23.2743 68.8365Z" fill="#E4E4E4"/>
<path d="M69.1734 93.8419C56.4363 93.8367 46.1524 83.5996 46.1259 70.9043C46.1021 58.106 56.4416 47.7844 69.2476 47.8267C81.9237 47.8663 92.2024 58.1905 92.205 70.8858C92.2103 83.5626 81.8893 93.8499 69.1734 93.8419ZM64.8739 66.9541C64.8739 68.174 64.8818 69.3966 64.8712 70.6165C64.8633 71.9024 65.2765 72.9929 66.2196 73.8986C67.4117 75.0419 68.5456 76.2459 69.735 77.3892C71.3589 78.9498 73.7087 78.9445 75.2505 77.413C76.7791 75.8974 76.795 73.5368 75.2611 71.8944C74.6068 71.1947 73.8703 70.5689 73.2557 69.8402C72.9696 69.5022 72.7524 68.9952 72.7365 68.5595C72.6782 66.7799 72.7338 64.9949 72.7047 63.2126C72.6676 60.852 70.9563 59.1093 68.7469 59.1357C66.5561 59.1622 64.9348 60.8415 64.8765 63.1889C64.85 64.4457 64.8765 65.6999 64.8739 66.9541Z" fill="#E4E4E4"/>
</svg>
