<svg width="116" height="88" viewBox="0 0 116 88" fill="none" xmlns="http://www.w3.org/2000/svg">
<path d="M115.456 42.2948C115.456 53.8006 115.456 65.3064 115.456 76.8122C115.39 76.9693 115.3 77.1209 115.264 77.2833C113.898 83.38 108.803 87.2108 101.94 87.2135C72.6355 87.2243 43.3276 87.2243 14.0226 87.2135C6.12171 87.2108 0.456361 82.0508 0.45336 74.9117C0.450359 64.4239 0.45336 53.936 0.45336 43.4454C0.45336 43.088 0.45336 42.7334 0.45336 42.3002C0.87346 42.4112 1.15853 42.4762 1.43759 42.5601C18.7727 47.777 36.1168 52.9695 53.428 58.2459C56.5187 59.188 59.4204 59.188 62.5081 58.2486C80.1403 52.8883 97.8025 47.6037 115.456 42.2948Z" fill="#E4E4E4"/>
<path d="M115.455 35.3915C108.584 37.4788 101.715 39.5742 94.8405 41.6507C83.2488 45.1484 71.648 48.6191 60.0653 52.1386C58.6039 52.5825 57.2896 52.5636 55.8223 52.1196C37.788 46.6537 19.7447 41.2202 1.6834 35.8247C0.660155 35.5188 0.405095 35.1072 0.4261 34.1949C0.492115 31.3875 0.444104 28.5774 0.453106 25.7699C0.46811 18.8313 6.16346 13.6496 13.8573 13.6225C21.6802 13.5954 29.506 13.6171 37.3289 13.6171C37.767 13.6171 38.2081 13.6171 38.8172 13.6171C38.8172 12.0334 38.7782 10.5552 38.8232 9.07975C38.9523 4.9539 41.998 1.65106 46.457 0.798275C47.1472 0.66562 47.8674 0.630426 48.5755 0.630426C54.826 0.616889 61.0795 0.597939 67.33 0.630426C72.2032 0.657498 75.9481 3.38641 76.9083 7.57181C77.0733 8.29194 77.0763 9.04997 77.0913 9.79176C77.1183 11.0046 77.1003 12.2202 77.1003 13.6171C77.6074 13.6171 78.0365 13.6171 78.4657 13.6171C86.1385 13.6171 93.8173 13.7416 101.487 13.5819C109.163 13.4222 114.489 18.4116 115.284 23.6502C115.305 23.7801 115.395 23.8992 115.452 24.0238C115.455 27.8112 115.455 31.6014 115.455 35.3915ZM48.4075 13.5413C54.844 13.5413 61.1425 13.5413 67.483 13.5413C67.483 12.0983 67.483 10.7339 67.483 9.34506C61.0795 9.34506 54.754 9.34506 48.4075 9.34506C48.4075 10.7772 48.4075 12.12 48.4075 13.5413Z" fill="#E4E4E4"/>
</svg>
